<?xml version="1.0" encoding="utf-8" standalone="no"?>
<!DOCTYPE svg PUBLIC "-//W3C//DTD SVG 1.1//EN"
  "http://www.w3.org/Graphics/SVG/1.1/DTD/svg11.dtd">
<!-- Created with matplotlib (https://matplotlib.org/) -->
<svg height="216pt" version="1.1" viewBox="0 0 259.2 216" width="259.2pt" xmlns="http://www.w3.org/2000/svg" xmlns:xlink="http://www.w3.org/1999/xlink">
 <defs>
  <style type="text/css">
*{stroke-linecap:butt;stroke-linejoin:round;}
  </style>
 </defs>
 <g id="figure_1">
  <g id="patch_1">
   <path d="M 0 216 
L 259.2 216 
L 259.2 0 
L 0 0 
z
" style="fill:none;"/>
  </g>
  <g id="axes_1">
   <g id="patch_2">
    <path d="M 87.6 143.1 
L 226.924521 143.1 
L 226.924521 21.6 
L 87.6 21.6 
z
" style="fill:none;"/>
   </g>
   <g id="PolyCollection_1">
    <path clip-path="url(#p12bc65fda2)" d="M 23.866442 -131.4 
L 23.866442 588.6 
L 24.459313 588.6 
L 25.052183 588.6 
L 25.645053 588.6 
L 26.237924 588.6 
L 26.830794 588.6 
L 27.423664 588.6 
L 28.016535 588.6 
L 28.609405 588.6 
L 29.202275 588.6 
L 29.795145 588.6 
L 30.388016 588.6 
L 30.980886 588.6 
L 31.573756 588.6 
L 32.166627 588.6 
L 32.759497 588.6 
L 33.352367 588.6 
L 33.945238 588.6 
L 34.538108 588.6 
L 35.130978 588.6 
L 35.723848 588.6 
L 36.316719 588.6 
L 36.909589 588.6 
L 37.502459 588.6 
L 38.09533 588.6 
L 38.6882 588.6 
L 39.28107 588.6 
L 39.873941 588.6 
L 40.466811 588.6 
L 41.059681 588.6 
L 41.652551 588.6 
L 42.245422 588.6 
L 42.838292 588.6 
L 43.431162 588.6 
L 44.024033 588.6 
L 44.616903 588.6 
L 45.209773 588.6 
L 45.802644 588.6 
L 46.395514 588.6 
L 46.988384 588.6 
L 47.581255 588.6 
L 48.174125 588.6 
L 48.766995 588.6 
L 49.359865 588.6 
L 49.952736 588.6 
L 50.545606 588.6 
L 51.138476 588.6 
L 51.731347 588.6 
L 52.324217 588.6 
L 52.917087 588.6 
L 53.509958 588.6 
L 54.102828 588.6 
L 54.695698 588.6 
L 55.288568 588.6 
L 55.881439 588.6 
L 56.474309 588.6 
L 57.067179 588.6 
L 57.66005 588.6 
L 58.25292 588.6 
L 58.84579 588.6 
L 59.438661 588.6 
L 60.031531 588.6 
L 60.624401 588.6 
L 61.217272 588.6 
L 61.810142 588.6 
L 62.403012 588.6 
L 62.995882 588.6 
L 63.588753 588.6 
L 64.181623 588.6 
L 64.774493 588.6 
L 65.367364 588.6 
L 65.960234 588.6 
L 66.553104 588.6 
L 67.145975 588.6 
L 67.738845 588.6 
L 68.331715 588.6 
L 68.924585 588.6 
L 69.517456 588.6 
L 70.110326 588.6 
L 70.703196 588.6 
L 71.296067 588.6 
L 71.888937 588.6 
L 72.481807 588.6 
L 73.074678 588.6 
L 73.667548 588.6 
L 74.260418 588.6 
L 74.853288 588.6 
L 75.446159 588.6 
L 76.039029 588.6 
L 76.631899 588.6 
L 77.22477 588.6 
L 77.81764 588.6 
L 78.41051 588.6 
L 79.003381 588.6 
L 79.596251 588.6 
L 80.189121 588.6 
L 80.781992 588.6 
L 81.374862 588.6 
L 81.967732 588.6 
L 82.560602 588.6 
L 83.153473 588.6 
L 83.746343 588.6 
L 84.339213 588.6 
L 84.932084 588.6 
L 85.524954 588.6 
L 86.117824 588.6 
L 86.710695 588.6 
L 87.303565 588.6 
L 87.896435 588.6 
L 88.489305 588.6 
L 89.082176 588.6 
L 89.675046 588.6 
L 90.267916 588.6 
L 90.860787 588.6 
L 91.453657 588.6 
L 92.046527 588.6 
L 92.639398 588.6 
L 93.232268 588.6 
L 93.825138 588.6 
L 94.418008 588.6 
L 95.010879 588.6 
L 95.603749 588.6 
L 96.196619 588.6 
L 96.78949 588.6 
L 97.38236 588.6 
L 97.97523 588.6 
L 98.568101 588.6 
L 99.160971 588.6 
L 99.753841 588.6 
L 100.346712 588.6 
L 100.939582 588.6 
L 101.532452 588.6 
L 102.125322 588.6 
L 102.718193 588.6 
L 103.311063 588.6 
L 103.903933 588.6 
L 104.496804 588.6 
L 105.089674 588.6 
L 105.682544 588.6 
L 106.275415 588.6 
L 106.868285 588.6 
L 106.868285 -131.4 
L 106.868285 -131.4 
L 106.275415 -131.4 
L 105.682544 -131.4 
L 105.089674 -131.4 
L 104.496804 -131.4 
L 103.903933 -131.4 
L 103.311063 -131.4 
L 102.718193 -131.4 
L 102.125322 -131.4 
L 101.532452 -131.4 
L 100.939582 -131.4 
L 100.346712 -131.4 
L 99.753841 -131.4 
L 99.160971 -131.4 
L 98.568101 -131.4 
L 97.97523 -131.4 
L 97.38236 -131.4 
L 96.78949 -131.4 
L 96.196619 -131.4 
L 95.603749 -131.4 
L 95.010879 -131.4 
L 94.418008 -131.4 
L 93.825138 -131.4 
L 93.232268 -131.4 
L 92.639398 -131.4 
L 92.046527 -131.4 
L 91.453657 -131.4 
L 90.860787 -131.4 
L 90.267916 -131.4 
L 89.675046 -131.4 
L 89.082176 -131.4 
L 88.489305 -131.4 
L 87.896435 -131.4 
L 87.303565 -131.4 
L 86.710695 -131.4 
L 86.117824 -131.4 
L 85.524954 -131.4 
L 84.932084 -131.4 
L 84.339213 -131.4 
L 83.746343 -131.4 
L 83.153473 -131.4 
L 82.560602 -131.4 
L 81.967732 -131.4 
L 81.374862 -131.4 
L 80.781992 -131.4 
L 80.189121 -131.4 
L 79.596251 -131.4 
L 79.003381 -131.4 
L 78.41051 -131.4 
L 77.81764 -131.4 
L 77.22477 -131.4 
L 76.631899 -131.4 
L 76.039029 -131.4 
L 75.446159 -131.4 
L 74.853288 -131.4 
L 74.260418 -131.4 
L 73.667548 -131.4 
L 73.074678 -131.4 
L 72.481807 -131.4 
L 71.888937 -131.4 
L 71.296067 -131.4 
L 70.703196 -131.4 
L 70.110326 -131.4 
L 69.517456 -131.4 
L 68.924585 -131.4 
L 68.331715 -131.4 
L 67.738845 -131.4 
L 67.145975 -131.4 
L 66.553104 -131.4 
L 65.960234 -131.4 
L 65.367364 -131.4 
L 64.774493 -131.4 
L 64.181623 -131.4 
L 63.588753 -131.4 
L 62.995882 -131.4 
L 62.403012 -131.4 
L 61.810142 -131.4 
L 61.217272 -131.4 
L 60.624401 -131.4 
L 60.031531 -131.4 
L 59.438661 -131.4 
L 58.84579 -131.4 
L 58.25292 -131.4 
L 57.66005 -131.4 
L 57.067179 -131.4 
L 56.474309 -131.4 
L 55.881439 -131.4 
L 55.288568 -131.4 
L 54.695698 -131.4 
L 54.102828 -131.4 
L 53.509958 -131.4 
L 52.917087 -131.4 
L 52.324217 -131.4 
L 51.731347 -131.4 
L 51.138476 -131.4 
L 50.545606 -131.4 
L 49.952736 -131.4 
L 49.359865 -131.4 
L 48.766995 -131.4 
L 48.174125 -131.4 
L 47.581255 -131.4 
L 46.988384 -131.4 
L 46.395514 -131.4 
L 45.802644 -131.4 
L 45.209773 -131.4 
L 44.616903 -131.4 
L 44.024033 -131.4 
L 43.431162 -131.4 
L 42.838292 -131.4 
L 42.245422 -131.4 
L 41.652551 -131.4 
L 41.059681 -131.4 
L 40.466811 -131.4 
L 39.873941 -131.4 
L 39.28107 -131.4 
L 38.6882 -131.4 
L 38.09533 -131.4 
L 37.502459 -131.4 
L 36.909589 -131.4 
L 36.316719 -131.4 
L 35.723848 -131.4 
L 35.130978 -131.4 
L 34.538108 -131.4 
L 33.945238 -131.4 
L 33.352367 -131.4 
L 32.759497 -131.4 
L 32.166627 -131.4 
L 31.573756 -131.4 
L 30.980886 -131.4 
L 30.388016 -131.4 
L 29.795145 -131.4 
L 29.202275 -131.4 
L 28.609405 -131.4 
L 28.016535 -131.4 
L 27.423664 -131.4 
L 26.830794 -131.4 
L 26.237924 -131.4 
L 25.645053 -131.4 
L 25.052183 -131.4 
L 24.459313 -131.4 
L 23.866442 -131.4 
z
" style="fill:#00a000;fill-opacity:0.4;stroke:#00a000;stroke-opacity:0.4;"/>
   </g>
   <g id="PolyCollection_2">
    <path clip-path="url(#p12bc65fda2)" d="M 107.461155 -131.4 
L 107.461155 588.6 
L 108.054025 588.6 
L 108.646896 588.6 
L 109.239766 588.6 
L 109.832636 588.6 
L 110.425507 588.6 
L 111.018377 588.6 
L 111.611247 588.6 
L 112.204118 588.6 
L 112.796988 588.6 
L 113.389858 588.6 
L 113.982728 588.6 
L 114.575599 588.6 
L 115.168469 588.6 
L 115.761339 588.6 
L 116.35421 588.6 
L 116.94708 588.6 
L 117.53995 588.6 
L 118.132821 588.6 
L 118.725691 588.6 
L 119.318561 588.6 
L 119.911432 588.6 
L 120.504302 588.6 
L 121.097172 588.6 
L 121.690042 588.6 
L 122.282913 588.6 
L 122.875783 588.6 
L 123.468653 588.6 
L 124.061524 588.6 
L 124.654394 588.6 
L 125.247264 588.6 
L 125.840135 588.6 
L 126.433005 588.6 
L 127.025875 588.6 
L 127.618745 588.6 
L 128.211616 588.6 
L 128.804486 588.6 
L 129.397356 588.6 
L 129.990227 588.6 
L 130.583097 588.6 
L 131.175967 588.6 
L 131.768838 588.6 
L 132.361708 588.6 
L 132.954578 588.6 
L 133.547449 588.6 
L 134.140319 588.6 
L 134.733189 588.6 
L 135.326059 588.6 
L 135.91893 588.6 
L 136.5118 588.6 
L 137.10467 588.6 
L 137.697541 588.6 
L 138.290411 588.6 
L 138.883281 588.6 
L 139.476152 588.6 
L 140.069022 588.6 
L 140.661892 588.6 
L 141.254762 588.6 
L 141.847633 588.6 
L 142.440503 588.6 
L 143.033373 588.6 
L 143.626244 588.6 
L 144.219114 588.6 
L 144.811984 588.6 
L 145.404855 588.6 
L 145.997725 588.6 
L 146.590595 588.6 
L 147.183465 588.6 
L 147.776336 588.6 
L 148.369206 588.6 
L 148.962076 588.6 
L 149.554947 588.6 
L 150.147817 588.6 
L 150.740687 588.6 
L 151.333558 588.6 
L 151.926428 588.6 
L 152.519298 588.6 
L 153.112169 588.6 
L 153.705039 588.6 
L 154.297909 588.6 
L 154.890779 588.6 
L 155.48365 588.6 
L 156.07652 588.6 
L 156.66939 588.6 
L 157.262261 588.6 
L 157.855131 588.6 
L 158.448001 588.6 
L 159.040872 588.6 
L 159.633742 588.6 
L 160.226612 588.6 
L 160.819482 588.6 
L 161.412353 588.6 
L 162.005223 588.6 
L 162.598093 588.6 
L 163.190964 588.6 
L 163.783834 588.6 
L 164.376704 588.6 
L 164.969575 588.6 
L 165.562445 588.6 
L 166.155315 588.6 
L 166.155315 -131.4 
L 166.155315 -131.4 
L 165.562445 -131.4 
L 164.969575 -131.4 
L 164.376704 -131.4 
L 163.783834 -131.4 
L 163.190964 -131.4 
L 162.598093 -131.4 
L 162.005223 -131.4 
L 161.412353 -131.4 
L 160.819482 -131.4 
L 160.226612 -131.4 
L 159.633742 -131.4 
L 159.040872 -131.4 
L 158.448001 -131.4 
L 157.855131 -131.4 
L 157.262261 -131.4 
L 156.66939 -131.4 
L 156.07652 -131.4 
L 155.48365 -131.4 
L 154.890779 -131.4 
L 154.297909 -131.4 
L 153.705039 -131.4 
L 153.112169 -131.4 
L 152.519298 -131.4 
L 151.926428 -131.4 
L 151.333558 -131.4 
L 150.740687 -131.4 
L 150.147817 -131.4 
L 149.554947 -131.4 
L 148.962076 -131.4 
L 148.369206 -131.4 
L 147.776336 -131.4 
L 147.183465 -131.4 
L 146.590595 -131.4 
L 145.997725 -131.4 
L 145.404855 -131.4 
L 144.811984 -131.4 
L 144.219114 -131.4 
L 143.626244 -131.4 
L 143.033373 -131.4 
L 142.440503 -131.4 
L 141.847633 -131.4 
L 141.254762 -131.4 
L 140.661892 -131.4 
L 140.069022 -131.4 
L 139.476152 -131.4 
L 138.883281 -131.4 
L 138.290411 -131.4 
L 137.697541 -131.4 
L 137.10467 -131.4 
L 136.5118 -131.4 
L 135.91893 -131.4 
L 135.326059 -131.4 
L 134.733189 -131.4 
L 134.140319 -131.4 
L 133.547449 -131.4 
L 132.954578 -131.4 
L 132.361708 -131.4 
L 131.768838 -131.4 
L 131.175967 -131.4 
L 130.583097 -131.4 
L 129.990227 -131.4 
L 129.397356 -131.4 
L 128.804486 -131.4 
L 128.211616 -131.4 
L 127.618745 -131.4 
L 127.025875 -131.4 
L 126.433005 -131.4 
L 125.840135 -131.4 
L 125.247264 -131.4 
L 124.654394 -131.4 
L 124.061524 -131.4 
L 123.468653 -131.4 
L 122.875783 -131.4 
L 122.282913 -131.4 
L 121.690042 -131.4 
L 121.097172 -131.4 
L 120.504302 -131.4 
L 119.911432 -131.4 
L 119.318561 -131.4 
L 118.725691 -131.4 
L 118.132821 -131.4 
L 117.53995 -131.4 
L 116.94708 -131.4 
L 116.35421 -131.4 
L 115.761339 -131.4 
L 115.168469 -131.4 
L 114.575599 -131.4 
L 113.982728 -131.4 
L 113.389858 -131.4 
L 112.796988 -131.4 
L 112.204118 -131.4 
L 111.611247 -131.4 
L 111.018377 -131.4 
L 110.425507 -131.4 
L 109.832636 -131.4 
L 109.239766 -131.4 
L 108.646896 -131.4 
L 108.054025 -131.4 
L 107.461155 -131.4 
z
" style="fill:#0090ff;fill-opacity:0.4;stroke:#0090ff;stroke-opacity:0.4;"/>
   </g>
   <g id="PolyCollection_3">
    <path clip-path="url(#p12bc65fda2)" d="M 166.748185 -131.4 
L 166.748185 588.6 
L 167.341056 588.6 
L 167.933926 588.6 
L 168.526796 588.6 
L 169.119667 588.6 
L 169.712537 588.6 
L 170.305407 588.6 
L 170.898278 588.6 
L 171.491148 588.6 
L 172.084018 588.6 
L 172.676889 588.6 
L 173.269759 588.6 
L 173.862629 588.6 
L 174.455499 588.6 
L 175.04837 588.6 
L 175.64124 588.6 
L 176.23411 588.6 
L 176.826981 588.6 
L 177.419851 588.6 
L 178.012721 588.6 
L 178.605592 588.6 
L 179.198462 588.6 
L 179.791332 588.6 
L 180.384202 588.6 
L 180.977073 588.6 
L 181.569943 588.6 
L 182.162813 588.6 
L 182.755684 588.6 
L 183.348554 588.6 
L 183.941424 588.6 
L 184.534295 588.6 
L 185.127165 588.6 
L 185.720035 588.6 
L 186.312906 588.6 
L 186.905776 588.6 
L 187.498646 588.6 
L 188.091516 588.6 
L 188.684387 588.6 
L 189.277257 588.6 
L 189.870127 588.6 
L 190.462998 588.6 
L 191.055868 588.6 
L 191.648738 588.6 
L 192.241609 588.6 
L 192.834479 588.6 
L 193.427349 588.6 
L 194.020219 588.6 
L 194.61309 588.6 
L 195.20596 588.6 
L 195.79883 588.6 
L 196.391701 588.6 
L 196.984571 588.6 
L 197.577441 588.6 
L 198.170312 588.6 
L 198.763182 588.6 
L 199.356052 588.6 
L 199.948922 588.6 
L 200.541793 588.6 
L 201.134663 588.6 
L 201.727533 588.6 
L 202.320404 588.6 
L 202.913274 588.6 
L 203.506144 588.6 
L 204.099015 588.6 
L 204.691885 588.6 
L 205.284755 588.6 
L 205.877626 588.6 
L 206.470496 588.6 
L 207.063366 588.6 
L 207.656236 588.6 
L 208.249107 588.6 
L 208.841977 588.6 
L 209.434847 588.6 
L 210.027718 588.6 
L 210.620588 588.6 
L 211.213458 588.6 
L 211.806329 588.6 
L 212.399199 588.6 
L 212.992069 588.6 
L 213.584939 588.6 
L 214.17781 588.6 
L 214.77068 588.6 
L 215.36355 588.6 
L 215.956421 588.6 
L 216.549291 588.6 
L 217.142161 588.6 
L 217.735032 588.6 
L 218.327902 588.6 
L 218.920772 588.6 
L 219.513642 588.6 
L 220.106513 588.6 
L 220.699383 588.6 
L 221.292253 588.6 
L 221.885124 588.6 
L 222.477994 588.6 
L 223.070864 588.6 
L 223.663735 588.6 
L 224.256605 588.6 
L 224.849475 588.6 
L 225.442346 588.6 
L 226.035216 588.6 
L 226.035216 -131.4 
L 226.035216 -131.4 
L 225.442346 -131.4 
L 224.849475 -131.4 
L 224.256605 -131.4 
L 223.663735 -131.4 
L 223.070864 -131.4 
L 222.477994 -131.4 
L 221.885124 -131.4 
L 221.292253 -131.4 
L 220.699383 -131.4 
L 220.106513 -131.4 
L 219.513642 -131.4 
L 218.920772 -131.4 
L 218.327902 -131.4 
L 217.735032 -131.4 
L 217.142161 -131.4 
L 216.549291 -131.4 
L 215.956421 -131.4 
L 215.36355 -131.4 
L 214.77068 -131.4 
L 214.17781 -131.4 
L 213.584939 -131.4 
L 212.992069 -131.4 
L 212.399199 -131.4 
L 211.806329 -131.4 
L 211.213458 -131.4 
L 210.620588 -131.4 
L 210.027718 -131.4 
L 209.434847 -131.4 
L 208.841977 -131.4 
L 208.249107 -131.4 
L 207.656236 -131.4 
L 207.063366 -131.4 
L 206.470496 -131.4 
L 205.877626 -131.4 
L 205.284755 -131.4 
L 204.691885 -131.4 
L 204.099015 -131.4 
L 203.506144 -131.4 
L 202.913274 -131.4 
L 202.320404 -131.4 
L 201.727533 -131.4 
L 201.134663 -131.4 
L 200.541793 -131.4 
L 199.948922 -131.4 
L 199.356052 -131.4 
L 198.763182 -131.4 
L 198.170312 -131.4 
L 197.577441 -131.4 
L 196.984571 -131.4 
L 196.391701 -131.4 
L 195.79883 -131.4 
L 195.20596 -131.4 
L 194.61309 -131.4 
L 194.020219 -131.4 
L 193.427349 -131.4 
L 192.834479 -131.4 
L 192.241609 -131.4 
L 191.648738 -131.4 
L 191.055868 -131.4 
L 190.462998 -131.4 
L 189.870127 -131.4 
L 189.277257 -131.4 
L 188.684387 -131.4 
L 188.091516 -131.4 
L 187.498646 -131.4 
L 186.905776 -131.4 
L 186.312906 -131.4 
L 185.720035 -131.4 
L 185.127165 -131.4 
L 184.534295 -131.4 
L 183.941424 -131.4 
L 183.348554 -131.4 
L 182.755684 -131.4 
L 182.162813 -131.4 
L 181.569943 -131.4 
L 180.977073 -131.4 
L 180.384202 -131.4 
L 179.791332 -131.4 
L 179.198462 -131.4 
L 178.605592 -131.4 
L 178.012721 -131.4 
L 177.419851 -131.4 
L 176.826981 -131.4 
L 176.23411 -131.4 
L 175.64124 -131.4 
L 175.04837 -131.4 
L 174.455499 -131.4 
L 173.862629 -131.4 
L 173.269759 -131.4 
L 172.676889 -131.4 
L 172.084018 -131.4 
L 171.491148 -131.4 
L 170.898278 -131.4 
L 170.305407 -131.4 
L 169.712537 -131.4 
L 169.119667 -131.4 
L 168.526796 -131.4 
L 167.933926 -131.4 
L 167.341056 -131.4 
L 166.748185 -131.4 
z
" style="fill:#ff2a2a;fill-opacity:0.4;stroke:#ff2a2a;stroke-opacity:0.4;"/>
   </g>
   <g id="matplotlib.axis_1">
    <g id="xtick_1">
     <g id="line2d_1">
      <defs>
       <path d="M 0 0 
L 0 3.5 
" id="m5ace50ca5d" style="stroke:#000000;stroke-width:0.8;"/>
      </defs>
      <g>
       <use style="stroke:#000000;stroke-width:0.8;" x="106.868285" xlink:href="#m5ace50ca5d" y="143.1"/>
      </g>
     </g>
     <g id="text_1">
      <!-- 0 -->
      <defs>
       <path d="M 31.78125 66.40625 
Q 24.171875 66.40625 20.328125 58.90625 
Q 16.5 51.421875 16.5 36.375 
Q 16.5 21.390625 20.328125 13.890625 
Q 24.171875 6.390625 31.78125 6.390625 
Q 39.453125 6.390625 43.28125 13.890625 
Q 47.125 21.390625 47.125 36.375 
Q 47.125 51.421875 43.28125 58.90625 
Q 39.453125 66.40625 31.78125 66.40625 
z
M 31.78125 74.21875 
Q 44.046875 74.21875 50.515625 64.515625 
Q 56.984375 54.828125 56.984375 36.375 
Q 56.984375 17.96875 50.515625 8.265625 
Q 44.046875 -1.421875 31.78125 -1.421875 
Q 19.53125 -1.421875 13.0625 8.265625 
Q 6.59375 17.96875 6.59375 36.375 
Q 6.59375 54.828125 13.0625 64.515625 
Q 19.53125 74.21875 31.78125 74.21875 
z
" id="DejaVuSans-48"/>
      </defs>
      <g transform="translate(100.505785 165.296875)scale(0.2 -0.2)">
       <use xlink:href="#DejaVuSans-48"/>
      </g>
     </g>
    </g>
    <g id="xtick_2">
     <g id="line2d_2">
      <g>
       <use style="stroke:#000000;stroke-width:0.8;" x="166.155315" xlink:href="#m5ace50ca5d" y="143.1"/>
      </g>
     </g>
     <g id="text_2">
      <!-- 10 -->
      <defs>
       <path d="M 12.40625 8.296875 
L 28.515625 8.296875 
L 28.515625 63.921875 
L 10.984375 60.40625 
L 10.984375 69.390625 
L 28.421875 72.90625 
L 38.28125 72.90625 
L 38.28125 8.296875 
L 54.390625 8.296875 
L 54.390625 0 
L 12.40625 0 
z
" id="DejaVuSans-49"/>
      </defs>
      <g transform="translate(153.430315 165.296875)scale(0.2 -0.2)">
       <use xlink:href="#DejaVuSans-49"/>
       <use x="63.623047" xlink:href="#DejaVuSans-48"/>
      </g>
     </g>
    </g>
    <g id="xtick_3">
     <g id="line2d_3">
      <g>
       <use style="stroke:#000000;stroke-width:0.8;" x="225.442346" xlink:href="#m5ace50ca5d" y="143.1"/>
      </g>
     </g>
     <g id="text_3">
      <!-- 20 -->
      <defs>
       <path d="M 19.1875 8.296875 
L 53.609375 8.296875 
L 53.609375 0 
L 7.328125 0 
L 7.328125 8.296875 
Q 12.9375 14.109375 22.625 23.890625 
Q 32.328125 33.6875 34.8125 36.53125 
Q 39.546875 41.84375 41.421875 45.53125 
Q 43.3125 49.21875 43.3125 52.78125 
Q 43.3125 58.59375 39.234375 62.25 
Q 35.15625 65.921875 28.609375 65.921875 
Q 23.96875 65.921875 18.8125 64.3125 
Q 13.671875 62.703125 7.8125 59.421875 
L 7.8125 69.390625 
Q 13.765625 71.78125 18.9375 73 
Q 24.125 74.21875 28.421875 74.21875 
Q 39.75 74.21875 46.484375 68.546875 
Q 53.21875 62.890625 53.21875 53.421875 
Q 53.21875 48.921875 51.53125 44.890625 
Q 49.859375 40.875 45.40625 35.40625 
Q 44.1875 33.984375 37.640625 27.21875 
Q 31.109375 20.453125 19.1875 8.296875 
z
" id="DejaVuSans-50"/>
      </defs>
      <g transform="translate(212.717346 165.296875)scale(0.2 -0.2)">
       <use xlink:href="#DejaVuSans-50"/>
       <use x="63.623047" xlink:href="#DejaVuSans-48"/>
      </g>
     </g>
    </g>
    <g id="text_4">
     <!-- $t-t_0$ -->
     <defs>
      <path d="M 42.28125 54.6875 
L 40.921875 47.703125 
L 23 47.703125 
L 17.1875 18.015625 
Q 16.890625 16.359375 16.75 15.234375 
Q 16.609375 14.109375 16.609375 13.484375 
Q 16.609375 10.359375 18.484375 8.9375 
Q 20.359375 7.515625 24.515625 7.515625 
L 33.59375 7.515625 
L 32.078125 0 
L 23.484375 0 
Q 15.484375 0 11.546875 3.125 
Q 7.625 6.25 7.625 12.59375 
Q 7.625 13.71875 7.765625 15.0625 
Q 7.90625 16.40625 8.203125 18.015625 
L 14.015625 47.703125 
L 6.390625 47.703125 
L 7.8125 54.6875 
L 15.28125 54.6875 
L 18.3125 70.21875 
L 27.296875 70.21875 
L 24.3125 54.6875 
z
" id="DejaVuSans-Oblique-116"/>
      <path d="M 10.59375 35.5 
L 73.1875 35.5 
L 73.1875 27.203125 
L 10.59375 27.203125 
z
" id="DejaVuSans-8722"/>
     </defs>
     <g transform="translate(132.362261 188.653125)scale(0.2 -0.2)">
      <use transform="translate(0 0.78125)" xlink:href="#DejaVuSans-Oblique-116"/>
      <use transform="translate(58.691406 0.78125)" xlink:href="#DejaVuSans-8722"/>
      <use transform="translate(161.962891 0.78125)" xlink:href="#DejaVuSans-Oblique-116"/>
      <use transform="translate(201.171875 -15.625)scale(0.7)" xlink:href="#DejaVuSans-48"/>
     </g>
    </g>
   </g>
   <g id="matplotlib.axis_2">
    <g id="ytick_1">
     <g id="line2d_4">
      <defs>
       <path d="M 0 0 
L -3.5 0 
" id="m685b267f7b" style="stroke:#000000;stroke-width:0.8;"/>
      </defs>
      <g>
       <use style="stroke:#000000;stroke-width:0.8;" x="87.6" xlink:href="#m685b267f7b" y="138.6"/>
      </g>
     </g>
     <g id="text_5">
      <!-- 0.0 -->
      <defs>
       <path d="M 10.6875 12.40625 
L 21 12.40625 
L 21 0 
L 10.6875 0 
z
" id="DejaVuSans-46"/>
      </defs>
      <g transform="translate(48.79375 146.198438)scale(0.2 -0.2)">
       <use xlink:href="#DejaVuSans-48"/>
       <use x="63.623047" xlink:href="#DejaVuSans-46"/>
       <use x="95.410156" xlink:href="#DejaVuSans-48"/>
      </g>
     </g>
    </g>
    <g id="ytick_2">
     <g id="line2d_5">
      <g>
       <use style="stroke:#000000;stroke-width:0.8;" x="87.6" xlink:href="#m685b267f7b" y="93.6"/>
      </g>
     </g>
     <g id="text_6">
      <!-- 0.1 -->
      <g transform="translate(48.79375 101.198437)scale(0.2 -0.2)">
       <use xlink:href="#DejaVuSans-48"/>
       <use x="63.623047" xlink:href="#DejaVuSans-46"/>
       <use x="95.410156" xlink:href="#DejaVuSans-49"/>
      </g>
     </g>
    </g>
    <g id="ytick_3">
     <g id="line2d_6">
      <g>
       <use style="stroke:#000000;stroke-width:0.8;" x="87.6" xlink:href="#m685b267f7b" y="48.6"/>
      </g>
     </g>
     <g id="text_7">
      <!-- 0.2 -->
      <g transform="translate(48.79375 56.198437)scale(0.2 -0.2)">
       <use xlink:href="#DejaVuSans-48"/>
       <use x="63.623047" xlink:href="#DejaVuSans-46"/>
       <use x="95.410156" xlink:href="#DejaVuSans-50"/>
      </g>
     </g>
    </g>
    <g id="text_8">
     <!-- $q(t-t_0)$ -->
     <defs>
      <path d="M 41.703125 8.203125 
Q 38.09375 3.46875 33.171875 1.015625 
Q 28.265625 -1.421875 22.3125 -1.421875 
Q 14.015625 -1.421875 9.296875 4.171875 
Q 4.59375 9.765625 4.59375 19.578125 
Q 4.59375 27.484375 7.5 34.859375 
Q 10.40625 42.234375 15.828125 48.09375 
Q 19.34375 51.90625 23.90625 53.953125 
Q 28.46875 56 33.5 56 
Q 39.546875 56 43.453125 53.609375 
Q 47.359375 51.21875 49.125 46.390625 
L 50.6875 54.59375 
L 59.71875 54.59375 
L 45.125 -20.609375 
L 36.078125 -20.609375 
z
M 13.921875 20.90625 
Q 13.921875 13.671875 16.9375 9.890625 
Q 19.96875 6.109375 25.6875 6.109375 
Q 34.1875 6.109375 40.1875 14.234375 
Q 46.1875 22.359375 46.1875 33.984375 
Q 46.1875 41.015625 43.078125 44.75 
Q 39.984375 48.484375 34.1875 48.484375 
Q 29.9375 48.484375 26.3125 46.5 
Q 22.703125 44.53125 20.015625 40.71875 
Q 17.1875 36.71875 15.546875 31.34375 
Q 13.921875 25.984375 13.921875 20.90625 
z
" id="DejaVuSans-Oblique-113"/>
      <path d="M 31 75.875 
Q 24.46875 64.65625 21.28125 53.65625 
Q 18.109375 42.671875 18.109375 31.390625 
Q 18.109375 20.125 21.3125 9.0625 
Q 24.515625 -2 31 -13.1875 
L 23.1875 -13.1875 
Q 15.875 -1.703125 12.234375 9.375 
Q 8.59375 20.453125 8.59375 31.390625 
Q 8.59375 42.28125 12.203125 53.3125 
Q 15.828125 64.359375 23.1875 75.875 
z
" id="DejaVuSans-40"/>
      <path d="M 8.015625 75.875 
L 15.828125 75.875 
Q 23.140625 64.359375 26.78125 53.3125 
Q 30.421875 42.28125 30.421875 31.390625 
Q 30.421875 20.453125 26.78125 9.375 
Q 23.140625 -1.703125 15.828125 -13.1875 
L 8.015625 -13.1875 
Q 14.5 -2 17.703125 9.0625 
Q 20.90625 20.125 20.90625 31.390625 
Q 20.90625 42.671875 17.703125 53.65625 
Q 14.5 64.65625 8.015625 75.875 
z
" id="DejaVuSans-41"/>
     </defs>
     <g transform="translate(40.59375 121.35)rotate(-90)scale(0.2 -0.2)">
      <use transform="translate(0 0.125)" xlink:href="#DejaVuSans-Oblique-113"/>
      <use transform="translate(63.476562 0.125)" xlink:href="#DejaVuSans-40"/>
      <use transform="translate(102.490234 0.125)" xlink:href="#DejaVuSans-Oblique-116"/>
      <use transform="translate(161.181641 0.125)" xlink:href="#DejaVuSans-8722"/>
      <use transform="translate(264.453125 0.125)" xlink:href="#DejaVuSans-Oblique-116"/>
      <use transform="translate(303.662109 -16.28125)scale(0.7)" xlink:href="#DejaVuSans-48"/>
      <use transform="translate(350.932617 0.125)" xlink:href="#DejaVuSans-41"/>
     </g>
    </g>
   </g>
   <g id="line2d_7">
    <path clip-path="url(#p12bc65fda2)" d="M -1 138.6 
L 0.15163 138.6 
L 6.080333 138.6 
L 12.009036 138.6 
L 17.937739 138.6 
L 23.866442 138.6 
L 29.795145 138.6 
L 35.723848 138.6 
L 41.652551 138.6 
L 47.581255 138.6 
L 53.509958 138.6 
L 59.438661 138.6 
L 65.367364 138.6 
L 71.296067 138.6 
L 77.22477 138.6 
L 83.153473 138.6 
L 89.082176 138.6 
L 95.010879 138.599993 
L 100.939582 138.599853 
L 106.868285 138.597931 
L 112.796988 138.580402 
L 118.725691 138.469017 
L 124.654394 137.958016 
L 130.583097 136.21639 
L 136.5118 131.708057 
L 142.440503 122.709714 
L 148.369206 108.780698 
L 154.297909 92.236443 
L 160.226612 77.934123 
L 166.155315 70.872311 
L 172.084018 73.298637 
L 178.012721 83.632199 
L 183.941424 97.813223 
L 189.870127 111.689742 
L 195.79883 122.68922 
L 201.727533 130.110126 
L 207.656236 134.48545 
L 213.584939 136.778294 
L 219.513642 137.859251 
L 225.442346 138.322025 
L 231.371049 138.503303 
L 237.299752 138.568691 
L 243.228455 138.590529 
L 249.157158 138.597314 
L 255.085861 138.599283 
L 260.2 138.599746 
" style="fill:none;stroke:#000000;stroke-linecap:square;stroke-width:1.5;"/>
    <defs>
     <path d="M 0 3 
C 0.795609 3 1.55874 2.683901 2.12132 2.12132 
C 2.683901 1.55874 3 0.795609 3 0 
C 3 -0.795609 2.683901 -1.55874 2.12132 -2.12132 
C 1.55874 -2.683901 0.795609 -3 0 -3 
C -0.795609 -3 -1.55874 -2.683901 -2.12132 -2.12132 
C -2.683901 -1.55874 -3 -0.795609 -3 0 
C -3 0.795609 -2.683901 1.55874 -2.12132 2.12132 
C -1.55874 2.683901 -0.795609 3 0 3 
z
" id="m42fb96a729" style="stroke:#000000;"/>
    </defs>
    <g clip-path="url(#p12bc65fda2)">
     <use style="stroke:#000000;" x="-1" xlink:href="#m42fb96a729" y="138.6"/>
     <use style="stroke:#000000;" x="0.15163" xlink:href="#m42fb96a729" y="138.6"/>
     <use style="stroke:#000000;" x="6.080333" xlink:href="#m42fb96a729" y="138.6"/>
     <use style="stroke:#000000;" x="12.009036" xlink:href="#m42fb96a729" y="138.6"/>
     <use style="stroke:#000000;" x="17.937739" xlink:href="#m42fb96a729" y="138.6"/>
     <use style="stroke:#000000;" x="23.866442" xlink:href="#m42fb96a729" y="138.6"/>
     <use style="stroke:#000000;" x="29.795145" xlink:href="#m42fb96a729" y="138.6"/>
     <use style="stroke:#000000;" x="35.723848" xlink:href="#m42fb96a729" y="138.6"/>
     <use style="stroke:#000000;" x="41.652551" xlink:href="#m42fb96a729" y="138.6"/>
     <use style="stroke:#000000;" x="47.581255" xlink:href="#m42fb96a729" y="138.6"/>
     <use style="stroke:#000000;" x="53.509958" xlink:href="#m42fb96a729" y="138.6"/>
     <use style="stroke:#000000;" x="59.438661" xlink:href="#m42fb96a729" y="138.6"/>
     <use style="stroke:#000000;" x="65.367364" xlink:href="#m42fb96a729" y="138.6"/>
     <use style="stroke:#000000;" x="71.296067" xlink:href="#m42fb96a729" y="138.6"/>
     <use style="stroke:#000000;" x="77.22477" xlink:href="#m42fb96a729" y="138.6"/>
     <use style="stroke:#000000;" x="83.153473" xlink:href="#m42fb96a729" y="138.6"/>
     <use style="stroke:#000000;" x="89.082176" xlink:href="#m42fb96a729" y="138.6"/>
     <use style="stroke:#000000;" x="95.010879" xlink:href="#m42fb96a729" y="138.599993"/>
     <use style="stroke:#000000;" x="100.939582" xlink:href="#m42fb96a729" y="138.599853"/>
     <use style="stroke:#000000;" x="106.868285" xlink:href="#m42fb96a729" y="138.597931"/>
     <use style="stroke:#000000;" x="112.796988" xlink:href="#m42fb96a729" y="138.580402"/>
     <use style="stroke:#000000;" x="118.725691" xlink:href="#m42fb96a729" y="138.469017"/>
     <use style="stroke:#000000;" x="124.654394" xlink:href="#m42fb96a729" y="137.958016"/>
     <use style="stroke:#000000;" x="130.583097" xlink:href="#m42fb96a729" y="136.21639"/>
     <use style="stroke:#000000;" x="136.5118" xlink:href="#m42fb96a729" y="131.708057"/>
     <use style="stroke:#000000;" x="142.440503" xlink:href="#m42fb96a729" y="122.709714"/>
     <use style="stroke:#000000;" x="148.369206" xlink:href="#m42fb96a729" y="108.780698"/>
     <use style="stroke:#000000;" x="154.297909" xlink:href="#m42fb96a729" y="92.236443"/>
     <use style="stroke:#000000;" x="160.226612" xlink:href="#m42fb96a729" y="77.934123"/>
     <use style="stroke:#000000;" x="166.155315" xlink:href="#m42fb96a729" y="70.872311"/>
     <use style="stroke:#000000;" x="172.084018" xlink:href="#m42fb96a729" y="73.298637"/>
     <use style="stroke:#000000;" x="178.012721" xlink:href="#m42fb96a729" y="83.632199"/>
     <use style="stroke:#000000;" x="183.941424" xlink:href="#m42fb96a729" y="97.813223"/>
     <use style="stroke:#000000;" x="189.870127" xlink:href="#m42fb96a729" y="111.689742"/>
     <use style="stroke:#000000;" x="195.79883" xlink:href="#m42fb96a729" y="122.68922"/>
     <use style="stroke:#000000;" x="201.727533" xlink:href="#m42fb96a729" y="130.110126"/>
     <use style="stroke:#000000;" x="207.656236" xlink:href="#m42fb96a729" y="134.48545"/>
     <use style="stroke:#000000;" x="213.584939" xlink:href="#m42fb96a729" y="136.778294"/>
     <use style="stroke:#000000;" x="219.513642" xlink:href="#m42fb96a729" y="137.859251"/>
     <use style="stroke:#000000;" x="225.442346" xlink:href="#m42fb96a729" y="138.322025"/>
     <use style="stroke:#000000;" x="231.371049" xlink:href="#m42fb96a729" y="138.503303"/>
     <use style="stroke:#000000;" x="237.299752" xlink:href="#m42fb96a729" y="138.568691"/>
     <use style="stroke:#000000;" x="243.228455" xlink:href="#m42fb96a729" y="138.590529"/>
     <use style="stroke:#000000;" x="249.157158" xlink:href="#m42fb96a729" y="138.597314"/>
     <use style="stroke:#000000;" x="255.085861" xlink:href="#m42fb96a729" y="138.599283"/>
     <use style="stroke:#000000;" x="261.014564" xlink:href="#m42fb96a729" y="138.59982"/>
     <use style="stroke:#000000;" x="266.943267" xlink:href="#m42fb96a729" y="138.599957"/>
     <use style="stroke:#000000;" x="272.87197" xlink:href="#m42fb96a729" y="138.59999"/>
     <use style="stroke:#000000;" x="278.800673" xlink:href="#m42fb96a729" y="138.599998"/>
     <use style="stroke:#000000;" x="284.729376" xlink:href="#m42fb96a729" y="138.6"/>
     <use style="stroke:#000000;" x="290.658079" xlink:href="#m42fb96a729" y="138.6"/>
     <use style="stroke:#000000;" x="296.586782" xlink:href="#m42fb96a729" y="138.6"/>
     <use style="stroke:#000000;" x="302.515485" xlink:href="#m42fb96a729" y="138.6"/>
     <use style="stroke:#000000;" x="308.444188" xlink:href="#m42fb96a729" y="138.6"/>
     <use style="stroke:#000000;" x="314.372891" xlink:href="#m42fb96a729" y="138.6"/>
     <use style="stroke:#000000;" x="320.301594" xlink:href="#m42fb96a729" y="138.6"/>
     <use style="stroke:#000000;" x="326.230297" xlink:href="#m42fb96a729" y="138.6"/>
     <use style="stroke:#000000;" x="332.159" xlink:href="#m42fb96a729" y="138.6"/>
     <use style="stroke:#000000;" x="338.087703" xlink:href="#m42fb96a729" y="138.6"/>
    </g>
   </g>
   <g id="patch_3">
    <path d="M 87.6 143.1 
L 87.6 21.6 
" style="fill:none;stroke:#000000;stroke-linecap:square;stroke-linejoin:miter;stroke-width:0.8;"/>
   </g>
   <g id="patch_4">
    <path d="M 226.924521 143.1 
L 226.924521 21.6 
" style="fill:none;stroke:#000000;stroke-linecap:square;stroke-linejoin:miter;stroke-width:0.8;"/>
   </g>
   <g id="patch_5">
    <path d="M 87.6 143.1 
L 226.924521 143.1 
" style="fill:none;stroke:#000000;stroke-linecap:square;stroke-linejoin:miter;stroke-width:0.8;"/>
   </g>
   <g id="patch_6">
    <path d="M 87.6 21.6 
L 226.924521 21.6 
" style="fill:none;stroke:#000000;stroke-linecap:square;stroke-linejoin:miter;stroke-width:0.8;"/>
   </g>
  </g>
 </g>
 <defs>
  <clipPath id="p12bc65fda2">
   <rect height="121.5" width="139.324521" x="87.6" y="21.6"/>
  </clipPath>
 </defs>
</svg>
