<?xml version="1.0" encoding="utf-8" standalone="no"?>
<!DOCTYPE svg PUBLIC "-//W3C//DTD SVG 1.1//EN"
  "http://www.w3.org/Graphics/SVG/1.1/DTD/svg11.dtd">
<!-- Created with matplotlib (https://matplotlib.org/) -->
<svg height="216pt" version="1.1" viewBox="0 0 259.2 216" width="259.2pt" xmlns="http://www.w3.org/2000/svg" xmlns:xlink="http://www.w3.org/1999/xlink">
 <defs>
  <style type="text/css">
*{stroke-linecap:butt;stroke-linejoin:round;}
  </style>
 </defs>
 <g id="figure_1">
  <g id="patch_1">
   <path d="M 0 216 
L 259.2 216 
L 259.2 0 
L 0 0 
z
" style="fill:none;"/>
  </g>
  <g id="axes_1">
   <g id="patch_2">
    <path d="M 87.6 143.1 
L 237.6 143.1 
L 237.6 21.6 
L 87.6 21.6 
z
" style="fill:none;"/>
   </g>
   <g id="PolyCollection_1">
    <path clip-path="url(#p70c3705edf)" d="M 76.885714 -131.4 
L 76.885714 588.6 
L 78.314286 588.6 
L 79.742857 588.6 
L 81.171429 588.6 
L 82.6 588.6 
L 84.028571 588.6 
L 85.457143 588.6 
L 86.885714 588.6 
L 88.314286 588.6 
L 89.742857 588.6 
L 91.171429 588.6 
L 92.6 588.6 
L 94.028571 588.6 
L 95.457143 588.6 
L 96.885714 588.6 
L 98.314286 588.6 
L 99.742857 588.6 
L 101.171429 588.6 
L 102.6 588.6 
L 104.028571 588.6 
L 105.457143 588.6 
L 106.885714 588.6 
L 108.314286 588.6 
L 109.742857 588.6 
L 111.171429 588.6 
L 112.6 588.6 
L 114.028571 588.6 
L 115.457143 588.6 
L 116.885714 588.6 
L 118.314286 588.6 
L 119.742857 588.6 
L 121.171429 588.6 
L 122.6 588.6 
L 124.028571 588.6 
L 125.457143 588.6 
L 126.885714 588.6 
L 126.885714 -131.4 
L 126.885714 -131.4 
L 125.457143 -131.4 
L 124.028571 -131.4 
L 122.6 -131.4 
L 121.171429 -131.4 
L 119.742857 -131.4 
L 118.314286 -131.4 
L 116.885714 -131.4 
L 115.457143 -131.4 
L 114.028571 -131.4 
L 112.6 -131.4 
L 111.171429 -131.4 
L 109.742857 -131.4 
L 108.314286 -131.4 
L 106.885714 -131.4 
L 105.457143 -131.4 
L 104.028571 -131.4 
L 102.6 -131.4 
L 101.171429 -131.4 
L 99.742857 -131.4 
L 98.314286 -131.4 
L 96.885714 -131.4 
L 95.457143 -131.4 
L 94.028571 -131.4 
L 92.6 -131.4 
L 91.171429 -131.4 
L 89.742857 -131.4 
L 88.314286 -131.4 
L 86.885714 -131.4 
L 85.457143 -131.4 
L 84.028571 -131.4 
L 82.6 -131.4 
L 81.171429 -131.4 
L 79.742857 -131.4 
L 78.314286 -131.4 
L 76.885714 -131.4 
z
" style="fill:#00a000;fill-opacity:0.4;stroke:#00a000;stroke-opacity:0.4;"/>
   </g>
   <g id="PolyCollection_2">
    <path clip-path="url(#p70c3705edf)" d="M 126.885714 -131.4 
L 126.885714 588.6 
L 128.314286 588.6 
L 129.742857 588.6 
L 131.171429 588.6 
L 132.6 588.6 
L 134.028571 588.6 
L 135.457143 588.6 
L 136.885714 588.6 
L 138.314286 588.6 
L 139.742857 588.6 
L 141.171429 588.6 
L 142.6 588.6 
L 144.028571 588.6 
L 145.457143 588.6 
L 146.885714 588.6 
L 148.314286 588.6 
L 149.742857 588.6 
L 151.171429 588.6 
L 152.6 588.6 
L 154.028571 588.6 
L 155.457143 588.6 
L 156.885714 588.6 
L 158.314286 588.6 
L 159.742857 588.6 
L 161.171429 588.6 
L 162.6 588.6 
L 164.028571 588.6 
L 165.457143 588.6 
L 166.885714 588.6 
L 168.314286 588.6 
L 169.742857 588.6 
L 171.171429 588.6 
L 172.6 588.6 
L 174.028571 588.6 
L 175.457143 588.6 
L 176.885714 588.6 
L 178.314286 588.6 
L 179.742857 588.6 
L 181.171429 588.6 
L 182.6 588.6 
L 184.028571 588.6 
L 185.457143 588.6 
L 186.885714 588.6 
L 188.314286 588.6 
L 189.742857 588.6 
L 191.171429 588.6 
L 192.6 588.6 
L 194.028571 588.6 
L 195.457143 588.6 
L 196.885714 588.6 
L 198.314286 588.6 
L 199.742857 588.6 
L 201.171429 588.6 
L 202.6 588.6 
L 204.028571 588.6 
L 205.457143 588.6 
L 206.885714 588.6 
L 208.314286 588.6 
L 209.742857 588.6 
L 211.171429 588.6 
L 212.6 588.6 
L 214.028571 588.6 
L 215.457143 588.6 
L 216.885714 588.6 
L 218.314286 588.6 
L 219.742857 588.6 
L 221.171429 588.6 
L 222.6 588.6 
L 224.028571 588.6 
L 225.457143 588.6 
L 226.885714 588.6 
L 228.314286 588.6 
L 229.742857 588.6 
L 231.171429 588.6 
L 232.6 588.6 
L 234.028571 588.6 
L 235.457143 588.6 
L 236.885714 588.6 
L 238.314286 588.6 
L 239.742857 588.6 
L 241.171429 588.6 
L 242.6 588.6 
L 244.028571 588.6 
L 245.457143 588.6 
L 246.885714 588.6 
L 248.314286 588.6 
L 248.314286 -131.4 
L 248.314286 -131.4 
L 246.885714 -131.4 
L 245.457143 -131.4 
L 244.028571 -131.4 
L 242.6 -131.4 
L 241.171429 -131.4 
L 239.742857 -131.4 
L 238.314286 -131.4 
L 236.885714 -131.4 
L 235.457143 -131.4 
L 234.028571 -131.4 
L 232.6 -131.4 
L 231.171429 -131.4 
L 229.742857 -131.4 
L 228.314286 -131.4 
L 226.885714 -131.4 
L 225.457143 -131.4 
L 224.028571 -131.4 
L 222.6 -131.4 
L 221.171429 -131.4 
L 219.742857 -131.4 
L 218.314286 -131.4 
L 216.885714 -131.4 
L 215.457143 -131.4 
L 214.028571 -131.4 
L 212.6 -131.4 
L 211.171429 -131.4 
L 209.742857 -131.4 
L 208.314286 -131.4 
L 206.885714 -131.4 
L 205.457143 -131.4 
L 204.028571 -131.4 
L 202.6 -131.4 
L 201.171429 -131.4 
L 199.742857 -131.4 
L 198.314286 -131.4 
L 196.885714 -131.4 
L 195.457143 -131.4 
L 194.028571 -131.4 
L 192.6 -131.4 
L 191.171429 -131.4 
L 189.742857 -131.4 
L 188.314286 -131.4 
L 186.885714 -131.4 
L 185.457143 -131.4 
L 184.028571 -131.4 
L 182.6 -131.4 
L 181.171429 -131.4 
L 179.742857 -131.4 
L 178.314286 -131.4 
L 176.885714 -131.4 
L 175.457143 -131.4 
L 174.028571 -131.4 
L 172.6 -131.4 
L 171.171429 -131.4 
L 169.742857 -131.4 
L 168.314286 -131.4 
L 166.885714 -131.4 
L 165.457143 -131.4 
L 164.028571 -131.4 
L 162.6 -131.4 
L 161.171429 -131.4 
L 159.742857 -131.4 
L 158.314286 -131.4 
L 156.885714 -131.4 
L 155.457143 -131.4 
L 154.028571 -131.4 
L 152.6 -131.4 
L 151.171429 -131.4 
L 149.742857 -131.4 
L 148.314286 -131.4 
L 146.885714 -131.4 
L 145.457143 -131.4 
L 144.028571 -131.4 
L 142.6 -131.4 
L 141.171429 -131.4 
L 139.742857 -131.4 
L 138.314286 -131.4 
L 136.885714 -131.4 
L 135.457143 -131.4 
L 134.028571 -131.4 
L 132.6 -131.4 
L 131.171429 -131.4 
L 129.742857 -131.4 
L 128.314286 -131.4 
L 126.885714 -131.4 
z
" style="fill:#ff2a2a;fill-opacity:0.4;stroke:#ff2a2a;stroke-opacity:0.4;"/>
   </g>
   <g id="matplotlib.axis_1">
    <g id="xtick_1">
     <g id="line2d_1">
      <defs>
       <path d="M 0 0 
L 0 3.5 
" id="mbb6f53f558" style="stroke:#000000;stroke-width:0.8;"/>
      </defs>
      <g>
       <use style="stroke:#000000;stroke-width:0.8;" x="91.171429" xlink:href="#mbb6f53f558" y="143.1"/>
      </g>
     </g>
     <g id="text_1">
      <!-- 0 -->
      <defs>
       <path d="M 31.78125 66.40625 
Q 24.171875 66.40625 20.328125 58.90625 
Q 16.5 51.421875 16.5 36.375 
Q 16.5 21.390625 20.328125 13.890625 
Q 24.171875 6.390625 31.78125 6.390625 
Q 39.453125 6.390625 43.28125 13.890625 
Q 47.125 21.390625 47.125 36.375 
Q 47.125 51.421875 43.28125 58.90625 
Q 39.453125 66.40625 31.78125 66.40625 
z
M 31.78125 74.21875 
Q 44.046875 74.21875 50.515625 64.515625 
Q 56.984375 54.828125 56.984375 36.375 
Q 56.984375 17.96875 50.515625 8.265625 
Q 44.046875 -1.421875 31.78125 -1.421875 
Q 19.53125 -1.421875 13.0625 8.265625 
Q 6.59375 17.96875 6.59375 36.375 
Q 6.59375 54.828125 13.0625 64.515625 
Q 19.53125 74.21875 31.78125 74.21875 
z
" id="DejaVuSans-48"/>
      </defs>
      <g transform="translate(84.808929 165.296875)scale(0.2 -0.2)">
       <use xlink:href="#DejaVuSans-48"/>
      </g>
     </g>
    </g>
    <g id="xtick_2">
     <g id="line2d_2">
      <g>
       <use style="stroke:#000000;stroke-width:0.8;" x="134.028571" xlink:href="#mbb6f53f558" y="143.1"/>
      </g>
     </g>
     <g id="text_2">
      <!-- 3 -->
      <defs>
       <path d="M 40.578125 39.3125 
Q 47.65625 37.796875 51.625 33 
Q 55.609375 28.21875 55.609375 21.1875 
Q 55.609375 10.40625 48.1875 4.484375 
Q 40.765625 -1.421875 27.09375 -1.421875 
Q 22.515625 -1.421875 17.65625 -0.515625 
Q 12.796875 0.390625 7.625 2.203125 
L 7.625 11.71875 
Q 11.71875 9.328125 16.59375 8.109375 
Q 21.484375 6.890625 26.8125 6.890625 
Q 36.078125 6.890625 40.9375 10.546875 
Q 45.796875 14.203125 45.796875 21.1875 
Q 45.796875 27.640625 41.28125 31.265625 
Q 36.765625 34.90625 28.71875 34.90625 
L 20.21875 34.90625 
L 20.21875 43.015625 
L 29.109375 43.015625 
Q 36.375 43.015625 40.234375 45.921875 
Q 44.09375 48.828125 44.09375 54.296875 
Q 44.09375 59.90625 40.109375 62.90625 
Q 36.140625 65.921875 28.71875 65.921875 
Q 24.65625 65.921875 20.015625 65.03125 
Q 15.375 64.15625 9.8125 62.3125 
L 9.8125 71.09375 
Q 15.4375 72.65625 20.34375 73.4375 
Q 25.25 74.21875 29.59375 74.21875 
Q 40.828125 74.21875 47.359375 69.109375 
Q 53.90625 64.015625 53.90625 55.328125 
Q 53.90625 49.265625 50.4375 45.09375 
Q 46.96875 40.921875 40.578125 39.3125 
z
" id="DejaVuSans-51"/>
      </defs>
      <g transform="translate(127.666071 165.296875)scale(0.2 -0.2)">
       <use xlink:href="#DejaVuSans-51"/>
      </g>
     </g>
    </g>
    <g id="xtick_3">
     <g id="line2d_3">
      <g>
       <use style="stroke:#000000;stroke-width:0.8;" x="176.885714" xlink:href="#mbb6f53f558" y="143.1"/>
      </g>
     </g>
     <g id="text_3">
      <!-- 6 -->
      <defs>
       <path d="M 33.015625 40.375 
Q 26.375 40.375 22.484375 35.828125 
Q 18.609375 31.296875 18.609375 23.390625 
Q 18.609375 15.53125 22.484375 10.953125 
Q 26.375 6.390625 33.015625 6.390625 
Q 39.65625 6.390625 43.53125 10.953125 
Q 47.40625 15.53125 47.40625 23.390625 
Q 47.40625 31.296875 43.53125 35.828125 
Q 39.65625 40.375 33.015625 40.375 
z
M 52.59375 71.296875 
L 52.59375 62.3125 
Q 48.875 64.0625 45.09375 64.984375 
Q 41.3125 65.921875 37.59375 65.921875 
Q 27.828125 65.921875 22.671875 59.328125 
Q 17.53125 52.734375 16.796875 39.40625 
Q 19.671875 43.65625 24.015625 45.921875 
Q 28.375 48.1875 33.59375 48.1875 
Q 44.578125 48.1875 50.953125 41.515625 
Q 57.328125 34.859375 57.328125 23.390625 
Q 57.328125 12.15625 50.6875 5.359375 
Q 44.046875 -1.421875 33.015625 -1.421875 
Q 20.359375 -1.421875 13.671875 8.265625 
Q 6.984375 17.96875 6.984375 36.375 
Q 6.984375 53.65625 15.1875 63.9375 
Q 23.390625 74.21875 37.203125 74.21875 
Q 40.921875 74.21875 44.703125 73.484375 
Q 48.484375 72.75 52.59375 71.296875 
z
" id="DejaVuSans-54"/>
      </defs>
      <g transform="translate(170.523214 165.296875)scale(0.2 -0.2)">
       <use xlink:href="#DejaVuSans-54"/>
      </g>
     </g>
    </g>
    <g id="xtick_4">
     <g id="line2d_4">
      <g>
       <use style="stroke:#000000;stroke-width:0.8;" x="219.742857" xlink:href="#mbb6f53f558" y="143.1"/>
      </g>
     </g>
     <g id="text_4">
      <!-- 9 -->
      <defs>
       <path d="M 10.984375 1.515625 
L 10.984375 10.5 
Q 14.703125 8.734375 18.5 7.8125 
Q 22.3125 6.890625 25.984375 6.890625 
Q 35.75 6.890625 40.890625 13.453125 
Q 46.046875 20.015625 46.78125 33.40625 
Q 43.953125 29.203125 39.59375 26.953125 
Q 35.25 24.703125 29.984375 24.703125 
Q 19.046875 24.703125 12.671875 31.3125 
Q 6.296875 37.9375 6.296875 49.421875 
Q 6.296875 60.640625 12.9375 67.421875 
Q 19.578125 74.21875 30.609375 74.21875 
Q 43.265625 74.21875 49.921875 64.515625 
Q 56.59375 54.828125 56.59375 36.375 
Q 56.59375 19.140625 48.40625 8.859375 
Q 40.234375 -1.421875 26.421875 -1.421875 
Q 22.703125 -1.421875 18.890625 -0.6875 
Q 15.09375 0.046875 10.984375 1.515625 
z
M 30.609375 32.421875 
Q 37.25 32.421875 41.125 36.953125 
Q 45.015625 41.5 45.015625 49.421875 
Q 45.015625 57.28125 41.125 61.84375 
Q 37.25 66.40625 30.609375 66.40625 
Q 23.96875 66.40625 20.09375 61.84375 
Q 16.21875 57.28125 16.21875 49.421875 
Q 16.21875 41.5 20.09375 36.953125 
Q 23.96875 32.421875 30.609375 32.421875 
z
" id="DejaVuSans-57"/>
      </defs>
      <g transform="translate(213.380357 165.296875)scale(0.2 -0.2)">
       <use xlink:href="#DejaVuSans-57"/>
      </g>
     </g>
    </g>
    <g id="text_5">
     <!-- $t-t_0$ -->
     <defs>
      <path d="M 42.28125 54.6875 
L 40.921875 47.703125 
L 23 47.703125 
L 17.1875 18.015625 
Q 16.890625 16.359375 16.75 15.234375 
Q 16.609375 14.109375 16.609375 13.484375 
Q 16.609375 10.359375 18.484375 8.9375 
Q 20.359375 7.515625 24.515625 7.515625 
L 33.59375 7.515625 
L 32.078125 0 
L 23.484375 0 
Q 15.484375 0 11.546875 3.125 
Q 7.625 6.25 7.625 12.59375 
Q 7.625 13.71875 7.765625 15.0625 
Q 7.90625 16.40625 8.203125 18.015625 
L 14.015625 47.703125 
L 6.390625 47.703125 
L 7.8125 54.6875 
L 15.28125 54.6875 
L 18.3125 70.21875 
L 27.296875 70.21875 
L 24.3125 54.6875 
z
" id="DejaVuSans-Oblique-116"/>
      <path d="M 10.59375 35.5 
L 73.1875 35.5 
L 73.1875 27.203125 
L 10.59375 27.203125 
z
" id="DejaVuSans-8722"/>
     </defs>
     <g transform="translate(137.7 188.653125)scale(0.2 -0.2)">
      <use transform="translate(0 0.78125)" xlink:href="#DejaVuSans-Oblique-116"/>
      <use transform="translate(58.691406 0.78125)" xlink:href="#DejaVuSans-8722"/>
      <use transform="translate(161.962891 0.78125)" xlink:href="#DejaVuSans-Oblique-116"/>
      <use transform="translate(201.171875 -15.625)scale(0.7)" xlink:href="#DejaVuSans-48"/>
     </g>
    </g>
   </g>
   <g id="matplotlib.axis_2">
    <g id="ytick_1">
     <g id="line2d_5">
      <defs>
       <path d="M 0 0 
L -3.5 0 
" id="m87fc685cbf" style="stroke:#000000;stroke-width:0.8;"/>
      </defs>
      <g>
       <use style="stroke:#000000;stroke-width:0.8;" x="87.6" xlink:href="#m87fc685cbf" y="138.6"/>
      </g>
     </g>
     <g id="text_6">
      <!-- 0.0 -->
      <defs>
       <path d="M 10.6875 12.40625 
L 21 12.40625 
L 21 0 
L 10.6875 0 
z
" id="DejaVuSans-46"/>
      </defs>
      <g transform="translate(48.79375 146.198438)scale(0.2 -0.2)">
       <use xlink:href="#DejaVuSans-48"/>
       <use x="63.623047" xlink:href="#DejaVuSans-46"/>
       <use x="95.410156" xlink:href="#DejaVuSans-48"/>
      </g>
     </g>
    </g>
    <g id="ytick_2">
     <g id="line2d_6">
      <g>
       <use style="stroke:#000000;stroke-width:0.8;" x="87.6" xlink:href="#m87fc685cbf" y="93.6"/>
      </g>
     </g>
     <g id="text_7">
      <!-- 0.1 -->
      <defs>
       <path d="M 12.40625 8.296875 
L 28.515625 8.296875 
L 28.515625 63.921875 
L 10.984375 60.40625 
L 10.984375 69.390625 
L 28.421875 72.90625 
L 38.28125 72.90625 
L 38.28125 8.296875 
L 54.390625 8.296875 
L 54.390625 0 
L 12.40625 0 
z
" id="DejaVuSans-49"/>
      </defs>
      <g transform="translate(48.79375 101.198437)scale(0.2 -0.2)">
       <use xlink:href="#DejaVuSans-48"/>
       <use x="63.623047" xlink:href="#DejaVuSans-46"/>
       <use x="95.410156" xlink:href="#DejaVuSans-49"/>
      </g>
     </g>
    </g>
    <g id="ytick_3">
     <g id="line2d_7">
      <g>
       <use style="stroke:#000000;stroke-width:0.8;" x="87.6" xlink:href="#m87fc685cbf" y="48.6"/>
      </g>
     </g>
     <g id="text_8">
      <!-- 0.2 -->
      <defs>
       <path d="M 19.1875 8.296875 
L 53.609375 8.296875 
L 53.609375 0 
L 7.328125 0 
L 7.328125 8.296875 
Q 12.9375 14.109375 22.625 23.890625 
Q 32.328125 33.6875 34.8125 36.53125 
Q 39.546875 41.84375 41.421875 45.53125 
Q 43.3125 49.21875 43.3125 52.78125 
Q 43.3125 58.59375 39.234375 62.25 
Q 35.15625 65.921875 28.609375 65.921875 
Q 23.96875 65.921875 18.8125 64.3125 
Q 13.671875 62.703125 7.8125 59.421875 
L 7.8125 69.390625 
Q 13.765625 71.78125 18.9375 73 
Q 24.125 74.21875 28.421875 74.21875 
Q 39.75 74.21875 46.484375 68.546875 
Q 53.21875 62.890625 53.21875 53.421875 
Q 53.21875 48.921875 51.53125 44.890625 
Q 49.859375 40.875 45.40625 35.40625 
Q 44.1875 33.984375 37.640625 27.21875 
Q 31.109375 20.453125 19.1875 8.296875 
z
" id="DejaVuSans-50"/>
      </defs>
      <g transform="translate(48.79375 56.198437)scale(0.2 -0.2)">
       <use xlink:href="#DejaVuSans-48"/>
       <use x="63.623047" xlink:href="#DejaVuSans-46"/>
       <use x="95.410156" xlink:href="#DejaVuSans-50"/>
      </g>
     </g>
    </g>
    <g id="text_9">
     <!-- $q(t-t_0)$ -->
     <defs>
      <path d="M 41.703125 8.203125 
Q 38.09375 3.46875 33.171875 1.015625 
Q 28.265625 -1.421875 22.3125 -1.421875 
Q 14.015625 -1.421875 9.296875 4.171875 
Q 4.59375 9.765625 4.59375 19.578125 
Q 4.59375 27.484375 7.5 34.859375 
Q 10.40625 42.234375 15.828125 48.09375 
Q 19.34375 51.90625 23.90625 53.953125 
Q 28.46875 56 33.5 56 
Q 39.546875 56 43.453125 53.609375 
Q 47.359375 51.21875 49.125 46.390625 
L 50.6875 54.59375 
L 59.71875 54.59375 
L 45.125 -20.609375 
L 36.078125 -20.609375 
z
M 13.921875 20.90625 
Q 13.921875 13.671875 16.9375 9.890625 
Q 19.96875 6.109375 25.6875 6.109375 
Q 34.1875 6.109375 40.1875 14.234375 
Q 46.1875 22.359375 46.1875 33.984375 
Q 46.1875 41.015625 43.078125 44.75 
Q 39.984375 48.484375 34.1875 48.484375 
Q 29.9375 48.484375 26.3125 46.5 
Q 22.703125 44.53125 20.015625 40.71875 
Q 17.1875 36.71875 15.546875 31.34375 
Q 13.921875 25.984375 13.921875 20.90625 
z
" id="DejaVuSans-Oblique-113"/>
      <path d="M 31 75.875 
Q 24.46875 64.65625 21.28125 53.65625 
Q 18.109375 42.671875 18.109375 31.390625 
Q 18.109375 20.125 21.3125 9.0625 
Q 24.515625 -2 31 -13.1875 
L 23.1875 -13.1875 
Q 15.875 -1.703125 12.234375 9.375 
Q 8.59375 20.453125 8.59375 31.390625 
Q 8.59375 42.28125 12.203125 53.3125 
Q 15.828125 64.359375 23.1875 75.875 
z
" id="DejaVuSans-40"/>
      <path d="M 8.015625 75.875 
L 15.828125 75.875 
Q 23.140625 64.359375 26.78125 53.3125 
Q 30.421875 42.28125 30.421875 31.390625 
Q 30.421875 20.453125 26.78125 9.375 
Q 23.140625 -1.703125 15.828125 -13.1875 
L 8.015625 -13.1875 
Q 14.5 -2 17.703125 9.0625 
Q 20.90625 20.125 20.90625 31.390625 
Q 20.90625 42.671875 17.703125 53.65625 
Q 14.5 64.65625 8.015625 75.875 
z
" id="DejaVuSans-41"/>
     </defs>
     <g transform="translate(40.59375 121.35)rotate(-90)scale(0.2 -0.2)">
      <use transform="translate(0 0.125)" xlink:href="#DejaVuSans-Oblique-113"/>
      <use transform="translate(63.476562 0.125)" xlink:href="#DejaVuSans-40"/>
      <use transform="translate(102.490234 0.125)" xlink:href="#DejaVuSans-Oblique-116"/>
      <use transform="translate(161.181641 0.125)" xlink:href="#DejaVuSans-8722"/>
      <use transform="translate(264.453125 0.125)" xlink:href="#DejaVuSans-Oblique-116"/>
      <use transform="translate(303.662109 -16.28125)scale(0.7)" xlink:href="#DejaVuSans-48"/>
      <use transform="translate(350.932617 0.125)" xlink:href="#DejaVuSans-41"/>
     </g>
    </g>
   </g>
   <g id="line2d_8">
    <path clip-path="url(#p70c3705edf)" d="M 91.171429 138.6 
L 105.457143 138.6 
L 119.742857 138.6 
L 134.028571 82.35 
L 148.314286 82.35 
L 162.6 82.35 
L 176.885714 82.35 
L 191.171429 82.35 
L 205.457143 82.35 
L 219.742857 82.35 
L 234.028571 82.35 
" style="fill:none;stroke:#000000;stroke-linecap:square;stroke-width:1.5;"/>
    <defs>
     <path d="M 0 3 
C 0.795609 3 1.55874 2.683901 2.12132 2.12132 
C 2.683901 1.55874 3 0.795609 3 0 
C 3 -0.795609 2.683901 -1.55874 2.12132 -2.12132 
C 1.55874 -2.683901 0.795609 -3 0 -3 
C -0.795609 -3 -1.55874 -2.683901 -2.12132 -2.12132 
C -2.683901 -1.55874 -3 -0.795609 -3 0 
C -3 0.795609 -2.683901 1.55874 -2.12132 2.12132 
C -1.55874 2.683901 -0.795609 3 0 3 
z
" id="mbebc234b28" style="stroke:#000000;"/>
    </defs>
    <g clip-path="url(#p70c3705edf)">
     <use style="stroke:#000000;" x="91.171429" xlink:href="#mbebc234b28" y="138.6"/>
     <use style="stroke:#000000;" x="105.457143" xlink:href="#mbebc234b28" y="138.6"/>
     <use style="stroke:#000000;" x="119.742857" xlink:href="#mbebc234b28" y="138.6"/>
     <use style="stroke:#000000;" x="134.028571" xlink:href="#mbebc234b28" y="82.35"/>
     <use style="stroke:#000000;" x="148.314286" xlink:href="#mbebc234b28" y="82.35"/>
     <use style="stroke:#000000;" x="162.6" xlink:href="#mbebc234b28" y="82.35"/>
     <use style="stroke:#000000;" x="176.885714" xlink:href="#mbebc234b28" y="82.35"/>
     <use style="stroke:#000000;" x="191.171429" xlink:href="#mbebc234b28" y="82.35"/>
     <use style="stroke:#000000;" x="205.457143" xlink:href="#mbebc234b28" y="82.35"/>
     <use style="stroke:#000000;" x="219.742857" xlink:href="#mbebc234b28" y="82.35"/>
     <use style="stroke:#000000;" x="234.028571" xlink:href="#mbebc234b28" y="82.35"/>
    </g>
   </g>
   <g id="patch_3">
    <path d="M 87.6 143.1 
L 87.6 21.6 
" style="fill:none;stroke:#000000;stroke-linecap:square;stroke-linejoin:miter;stroke-width:0.8;"/>
   </g>
   <g id="patch_4">
    <path d="M 237.6 143.1 
L 237.6 21.6 
" style="fill:none;stroke:#000000;stroke-linecap:square;stroke-linejoin:miter;stroke-width:0.8;"/>
   </g>
   <g id="patch_5">
    <path d="M 87.6 143.1 
L 237.6 143.1 
" style="fill:none;stroke:#000000;stroke-linecap:square;stroke-linejoin:miter;stroke-width:0.8;"/>
   </g>
   <g id="patch_6">
    <path d="M 87.6 21.6 
L 237.6 21.6 
" style="fill:none;stroke:#000000;stroke-linecap:square;stroke-linejoin:miter;stroke-width:0.8;"/>
   </g>
  </g>
 </g>
 <defs>
  <clipPath id="p70c3705edf">
   <rect height="121.5" width="150" x="87.6" y="21.6"/>
  </clipPath>
 </defs>
</svg>
